<?xml version="1.0" encoding="utf-8"?>
<!-- Generator: Adobe Illustrator 21.0.2, SVG Export Plug-In . SVG Version: 6.00 Build 0)  -->
<svg version="1.1" id="Слой_1" xmlns="http://www.w3.org/2000/svg" xmlns:xlink="http://www.w3.org/1999/xlink" x="0px" y="0px"
	 viewBox="0 0 520 365" enable-background="new 0 0 520 365" xml:space="preserve">
<g>
	<path fill="#FFFFFF" d="M507,37.7l0.5,307.8c-0.2,4.5-4,8.1-8.5,7.9l-102.4,0.2c-4.5,0.2-8.3-3.4-8.5-7.9l-0.3-197.3L507,37.7
		L507,37.7z"/>
	<path fill="#8BA9DA" d="M12.1,21.3l0,25.6c0-4.7,3.8-8.5,8.5-8.5L507,37.7l0-25.6L20.6,12.8C15.9,12.8,12.1,16.6,12.1,21.3
		L12.1,21.3L12.1,21.3z"/>
	<g>
		<defs>
			<path id="SVGID_1_" d="M80.4,72.4c0,9.4-7.6,17.1-17,17.1c-9.4,0-17.1-7.6-17.1-17c0-9.4,7.6-17.1,17-17.1
				C72.7,55.4,80.4,63,80.4,72.4L80.4,72.4z M507,37.7L20.6,38.4c-4.7,0-8.5,3.8-8.5,8.5l0.1,76.8c0,4.7,3.8,8.5,8.5,8.5l366.9-0.5
				L507,37.7L507,37.7z"/>
		</defs>
		<clipPath id="SVGID_2_">
			<use xlink:href="#SVGID_1_"  overflow="visible"/>
		</clipPath>
		<g clip-path="url(#SVGID_2_)">
			<defs>
				
					<rect id="SVGID_3_" x="12.2" y="38" transform="matrix(1 -1.497574e-03 1.497574e-03 1 -0.127 0.3889)" width="494.9" height="93.9"/>
			</defs>
			<clipPath id="SVGID_4_">
				<use xlink:href="#SVGID_3_"  overflow="visible"/>
			</clipPath>
			<g clip-path="url(#SVGID_4_)">
				
					<image overflow="visible" width="204" height="1034" xlink:href="364EC0B9.jpg"  transform="matrix(-7.190000e-04 -0.48 -0.48 7.190000e-04 507.8633 132.7612)">
				</image>
			</g>
		</g>
	</g>
	<g>
		<defs>
			<path id="SVGID_5_" d="M507,12.1l0.5,307.8c-0.2,4.5-4,8.1-8.5,7.9L396.5,328c-4.5,0.2-8.3-3.4-8.5-7.9l-0.3-197.3L507,12.1
				L507,12.1z"/>
		</defs>
		<clipPath id="SVGID_6_">
			<use xlink:href="#SVGID_5_"  overflow="visible"/>
		</clipPath>
		<g clip-path="url(#SVGID_6_)">
			<defs>
				
					<rect id="SVGID_7_" x="387.8" y="12.2" transform="matrix(1 -1.504182e-03 1.504182e-03 1 -0.2554 0.6733)" width="119.5" height="315.9"/>
			</defs>
			<clipPath id="SVGID_8_">
				<use xlink:href="#SVGID_7_"  overflow="visible"/>
			</clipPath>
			<g transform="matrix(1 0 0 1 -3.051758e-05 0)" clip-path="url(#SVGID_8_)">
				
					<image overflow="visible" width="664" height="252" xlink:href="364EC0BB.jpg"  transform="matrix(-7.190000e-04 -0.48 -0.48 7.190000e-04 508.3389 328.8549)">
				</image>
			</g>
		</g>
	</g>
	<g>
		<defs>
			
				<rect id="SVGID_9_" x="3.8" y="3.9" transform="matrix(1 -1.497268e-03 1.497268e-03 1 -0.2739 0.3892)" width="512" height="358.4"/>
		</defs>
		<clipPath id="SVGID_10_">
			<use xlink:href="#SVGID_9_"  overflow="visible"/>
		</clipPath>
		<path clip-path="url(#SVGID_10_)" fill="#5B7EBD" d="M439.2,353.5c0-4.7,3.8-8.5,8.5-8.5c4.7,0,8.5,3.8,8.5,8.5
			c0,4.7-3.8,8.5-8.5,8.5C443.1,362,439.2,358.2,439.2,353.5L439.2,353.5z"/>
		<path clip-path="url(#SVGID_10_)" fill="#5B7EBD" d="M20.6,21.3l85.3-0.1l0,25.6c0,4.7,3.8,8.5,8.5,8.5c4.7,0,8.5-3.8,8.5-8.5
			l0-25.6l17.1,0l0,8.5c0,4.7,3.8,8.5,8.5,8.5c4.7,0,8.5-3.8,8.5-8.5l0-8.5l17.1,0l0,8.5c0,4.7,3.8,8.5,8.5,8.5
			c4.7,0,8.5-3.8,8.5-8.5l0-8.5l17.1,0l0,25.6c0,4.7,3.8,8.5,8.5,8.5c4.7,0,8.5-3.8,8.5-8.5l0-25.6l17.1,0l0,8.5
			c0,4.7,3.8,8.5,8.5,8.5c4.7,0,8.5-3.8,8.5-8.5l0-8.5l17.1,0l0,8.5c0,4.7,3.8,8.5,8.5,8.5c4.7,0,8.5-3.8,8.5-8.5l0-8.5l17.1,0
			l0,25.6c0,4.7,3.8,8.5,8.5,8.5c4.7,0,8.5-3.8,8.5-8.5l0-25.6l17.1,0l0,8.5c0,4.7,3.8,8.5,8.5,8.5c4.7,0,8.5-3.8,8.5-8.5l0-8.5
			l17.1,0l0,8.5c0,4.7,3.8,8.5,8.5,8.5c4.7,0,8.5-3.8,8.5-8.5l0-8.5l17.1,0l0,25.6c0,4.7,3.8,8.5,8.5,8.5c4.7,0,8.5-3.8,8.5-8.5
			l0-25.6l56.2-0.1L384.2,123.2l-22.1,0l0-8.5c0-4.7-3.8-8.5-8.5-8.5c-4.7,0-8.5,3.8-8.5,8.5l0,8.5l-17.1,0l0-25.6
			c0-4.7-3.8-8.5-8.5-8.5c-4.7,0-8.5,3.8-8.5,8.5l0,25.6l-17.1,0l0-8.5c0-4.7-3.8-8.5-8.5-8.5c-4.7,0-8.5,3.8-8.5,8.5l0,8.5l-17.1,0
			l0-8.5c0-4.7-3.8-8.5-8.5-8.5c-4.7,0-8.5,3.8-8.5,8.5l0,8.5l-17.1,0l0-25.6c0-4.7-3.8-8.5-8.5-8.5c-4.7,0-8.5,3.8-8.5,8.5l0,25.6
			l-17.1,0l0-8.5c0-4.7-3.8-8.5-8.5-8.5s-8.5,3.8-8.5,8.5l0,8.5l-17.1,0l0-8.5c0-4.7-3.8-8.5-8.5-8.5c-4.7,0-8.5,3.8-8.5,8.5l0,8.5
			l-17.1,0l0-25.6c0-4.7-3.8-8.5-8.5-8.5c-4.7,0-8.5,3.8-8.5,8.5l0,25.6l-85.3,0.1L20.6,21.3L20.6,21.3z M473.4,353.5
			c0,2.3,0.9,4.4,2.5,6c1.6,1.6,3.8,2.5,6,2.5l17.1,0c9.4,0,17-7.7,17-17.1l-0.5-332.8c0-4.7-3.8-8.5-8.5-8.5L20.6,4.3
			c-9.4,0-17,7.7-17,17.1l0.2,102.4c0,9.4,7.7,17,17.1,17l358.4-0.5l0.3,204.8c0,9.4,7.7,17,17.1,17l17.1,0c4.7,0,8.5-3.8,8.5-8.5
			c0-4.7-3.8-8.5-8.5-8.5l-17.1,0l-0.3-209.8L498.5,32.7l0.5,312.2l-17.1,0c-2.3,0-4.4,0.9-6,2.5C474.3,349,473.4,351.2,473.4,353.5
			L473.4,353.5z"/>
	</g>
	<path fill="#5B7EBD" d="M54.8,72.5c0-4.7,3.8-8.5,8.5-8.5c4.7,0,8.5,3.8,8.5,8.5c0,4.7-3.8,8.5-8.5,8.5
		C58.6,81,54.8,77.2,54.8,72.5L54.8,72.5z M88.9,72.4c0-14.1-11.5-25.6-25.6-25.6c-14.1,0-25.6,11.5-25.6,25.6
		c0,14.1,11.5,25.6,25.6,25.6C77.5,98,89,86.6,88.9,72.4L88.9,72.4L88.9,72.4z"/>
	<path fill="#5B7EBD" d="M439.2,319.4L439,182.8c0-4.7-3.8-8.5-8.5-8.5c-4.7,0-8.5,3.8-8.5,8.5l0.2,136.5c0,4.7,3.8,8.5,8.5,8.5
		C435.4,327.9,439.2,324.1,439.2,319.4L439.2,319.4z"/>
	<path fill="#5B7EBD" d="M473.3,319.3l-0.2-136.5c0-4.7-3.8-8.5-8.5-8.5c-4.7,0-8.5,3.8-8.5,8.5l0.2,136.5c0,4.7,3.8,8.5,8.5,8.5
		C469.5,327.9,473.3,324,473.3,319.3L473.3,319.3z"/>
	<path fill="#5B7EBD" d="M447.4,140.2c0-1.1-0.2-2.2-0.6-3.2c-0.5-1-1.1-2-1.9-2.8c-0.8-0.7-1.8-1.4-2.8-1.8c-2.1-0.9-4.4-0.9-6.5,0
		c-1,0.4-2,1-2.8,1.8c-3.2,3.4-3.1,8.7,0,12.1c0.8,0.8,1.8,1.4,2.8,1.8c2.1,0.9,4.4,0.9,6.5,0c1-0.4,2-1,2.8-1.8
		C446.6,144.6,447.5,142.4,447.4,140.2L447.4,140.2z"/>
	<path fill="#5B7EBD" d="M480.9,109.2c0.9-2.1,0.9-4.4,0-6.5c-0.4-1-1-2-1.8-2.8c-0.8-0.8-1.8-1.4-2.8-1.8c-1-0.4-2.1-0.7-3.2-0.7
		c-0.6,0-1.1,0.1-1.7,0.2c-0.5,0.1-1,0.3-1.5,0.5c-0.5,0.2-1.1,0.4-1.5,0.8c-0.4,0.3-0.9,0.7-1.3,1c-3.2,3.4-3.1,8.7,0,12.1
		c1.6,1.6,3.8,2.5,6.1,2.5c1.1,0,2.2-0.2,3.2-0.7C478.4,113.1,480.1,111.4,480.9,109.2L480.9,109.2L480.9,109.2z"/>
	<path fill="#5B7EBD" d="M476.3,148c1-0.4,2-1,2.8-1.8c3.3-3.4,3.3-8.8,0-12.1c-0.8-0.8-1.8-1.4-2.8-1.8c-1-0.4-2.1-0.7-3.2-0.7
		c-2.3,0-4.4,0.9-6.1,2.5c-2,2.1-2.9,5-2.3,7.8c0.1,0.5,0.3,1.1,0.5,1.5c0.2,0.5,0.4,1.1,0.8,1.5c0.3,0.4,0.7,0.9,1,1.3
		c1.6,1.6,3.8,2.4,6.1,2.5C474.2,148.6,475.3,148.4,476.3,148L476.3,148L476.3,148z"/>
</g>
</svg>
