<?xml version="1.0" encoding="utf-8"?>
<!-- Generator: Adobe Illustrator 21.0.2, SVG Export Plug-In . SVG Version: 6.00 Build 0)  -->
<svg version="1.1" id="Слой_1" xmlns="http://www.w3.org/2000/svg" xmlns:xlink="http://www.w3.org/1999/xlink" x="0px" y="0px"
	 viewBox="0 0 401 514" enable-background="new 0 0 401 514" xml:space="preserve">
<g>
	<path fill="#BFCEE8" d="M216.8,67.2v-36c0-9.3-7.5-16.8-16.8-16.8c-9.3,0-16.8,7.5-16.8,16.8v36H216.8L216.8,67.2z"/>
	<polygon fill="#FFFFFF" points="180.5,178.9 63.2,501.2 49,450.8 152.4,157.8 152.4,157.7 180.5,178.9 	"/>
	<polygon fill="#8BA9DA" points="247.6,157.9 247.6,158 351,450.8 336.9,501.6 219.5,178.9 247.6,157.9 	"/>
	<path fill="#8BA9DA" d="M216.8,64.7c23.2,0,42,26.3,42,58.8c0,32.4-18.8,58.8-42,58.8c-23.2,0-42-26.3-42-58.8
		C174.9,91,193.7,64.7,216.8,64.7L216.8,64.7z"/>
	<path fill="#FFFFFF" d="M183.3,64.7c23.2,0,42,26.3,42,58.8c0,32.4-18.8,58.8-42,58.8c-23.2,0-42-26.3-42-58.8
		C141.3,91,160.1,64.7,183.3,64.7L183.3,64.7z"/>
	<path fill="#BFCEE8" d="M200,64.7c18.5,0,33.6,26.3,33.6,58.8c0,32.4-15,58.8-33.6,58.8s-33.6-26.3-33.6-58.8
		C166.5,91,181.5,64.7,200,64.7L200,64.7z"/>
	<path fill="#8BA9DA" d="M200,98.3c13.9,0,25.2,11.3,25.2,25.2c0,13.9-11.3,25.2-25.2,25.2c-13.9,0-25.2-11.3-25.2-25.2
		C174.9,109.6,186.1,98.3,200,98.3L200,98.3z"/>
	<path fill="#BFCEE8" d="M183.3,299.7h33.6c9.3,0,16.8,7.5,16.8,16.8l0,0c0,9.3-7.5,16.8-16.8,16.8h-33.6c-9.3,0-16.8-7.5-16.8-16.8
		l0,0C166.5,307.3,174,299.7,183.3,299.7L183.3,299.7z"/>
	<path fill="#5B7EBD" d="M120.1,241c4.6,0,8.4,3.8,8.4,8.4c0,4.6-3.8,8.4-8.4,8.4c-4.6,0-8.4-3.8-8.4-8.4
		C111.7,244.7,115.4,241,120.1,241L120.1,241z"/>
	<path fill="#5B7EBD" d="M183.3,123.5c0-9.3,7.5-16.8,16.8-16.8c9.3,0,16.8,7.5,16.8,16.8c0,9.3-7.5,16.8-16.8,16.8
		C190.8,140.3,183.3,132.8,183.3,123.5L183.3,123.5L183.3,123.5z M233.6,123.5c0-18.5-15-33.6-33.6-33.6s-33.6,15-33.6,33.6
		s15,33.6,33.6,33.6C218.6,157,233.6,142,233.6,123.5L233.6,123.5L233.6,123.5z"/>
	<path fill="#5B7EBD" d="M335.9,474.1l-58.5-160.7l0-0.1l-47.2-129.8c5.1-2.6,9.9-5.8,14.2-9.6l97.9,277.2L335.9,474.1L335.9,474.1z
		 M240.5,308.1c-3.5-10-13-16.8-23.6-16.8h-33.6c-10.6,0-20.1,6.8-23.6,16.8h-17.3l43.4-119.1c9.4,2.1,19.2,2.1,28.6,0l43.3,119.1
		H240.5L240.5,308.1z M216.8,324.9h-33.6c-4.6,0-8.4-3.8-8.4-8.4c0-4.6,3.8-8.4,8.4-8.4h33.6c4.6,0,8.4,3.8,8.4,8.4
		C225.2,321.2,221.5,324.9,216.8,324.9L216.8,324.9z M149.7,123.5c0-27.8,22.5-50.4,50.4-50.4c27.8,0,50.4,22.5,50.4,50.4
		c0,27.8-22.5,50.4-50.4,50.4C172.2,173.8,149.7,151.3,149.7,123.5L149.7,123.5L149.7,123.5z M191.7,31.2c0-4.6,3.8-8.4,8.4-8.4
		c4.6,0,8.4,3.8,8.4,8.4v25.8c-5.6-0.8-11.2-0.8-16.8,0V31.2L191.7,31.2z M384.7,308.1h-33.6v-8.4c0-4.6-3.8-8.4-8.4-8.4
		c-4.6,0-8.4,3.8-8.4,8.4v8.4h-24.8l-52.7-149c10.6-16.8,13.2-37.4,7.1-56.3c-6.1-18.9-20.3-34.1-38.7-41.5V31.2
		C225.2,17.2,214,6,200,6c-13.9,0-25.2,11.3-25.2,25.2v30.1c-18.4,7.4-32.5,22.5-38.7,41.4c-6.1,18.8-3.6,39.4,6.9,56.2L124,213
		c-1.5,4.4,0.7,9.2,5.1,10.7c0.9,0.3,1.8,0.5,2.8,0.5c3.6,0,6.7-2.2,7.9-5.6l15.8-44.9c4.3,3.8,9.1,7.1,14.3,9.7L64.2,473.9
		l-6.4-22.7l46.4-131.3l0,0l12-34c1-2.8,0.4-6-1.5-8.3c-1.9-2.3-5-3.4-7.9-2.8c-3,0.6-5.4,2.6-6.4,5.5l-9.9,28H65.8v-8.4
		c0-4.6-3.8-8.4-8.4-8.4c-4.6,0-8.4,3.8-8.4,8.4v8.4H15.4c-4.6,0-8.4,3.8-8.4,8.4c0,4.6,3.8,8.4,8.4,8.4H49v8.4
		c0,4.6,3.8,8.4,8.4,8.4c4.6,0,8.4-3.8,8.4-8.4v-8.4h18.8L41.1,448c-0.6,1.6-0.6,3.4-0.2,5.1l14.2,50.4c1,3.5,4.1,6,7.8,6.1
		c0.1,0,0.2,0,0.3,0c3.5,0,6.7-2.2,7.9-5.5l65.2-179.1h23.4c3.5,10,13,16.8,23.6,16.8h33.6c10.6,0,20.1-6.8,23.6-16.8h23.3
		l65.3,179.5c1.2,3.3,4.4,5.5,7.9,5.5c0.1,0,0.2,0,0.3,0c3.6-0.1,6.8-2.6,7.8-6.1l14.1-50.8c0.5-1.7,0.4-3.4-0.2-5l-43.5-123.1h18.9
		v8.4c0,4.6,3.8,8.4,8.4,8.4c4.6,0,8.4-3.8,8.4-8.4v-8.4h33.6c4.6,0,8.4-3.8,8.4-8.4C393.1,311.9,389.3,308.1,384.7,308.1
		L384.7,308.1z"/>
</g>
</svg>
