<?xml version="1.0" encoding="UTF-8"?><!DOCTYPE svg PUBLIC "-//W3C//DTD SVG 1.1//EN" "http://www.w3.org/Graphics/SVG/1.1/DTD/svg11.dtd"><svg xmlns="http://www.w3.org/2000/svg" xmlns:xlink="http://www.w3.org/1999/xlink"><defs>
        <path id="a" d="M5 4h379v380.9H5z"/>
    </defs><symbol id="icon-facebook" viewBox="0 0 10 19">
    <title>
        facebook
    </title>
    <path d="M9.766.157v2.946H8.014c-.64 0-1.071.134-1.295.402-.223.268-.335.67-.335 1.205v2.11h3.27l-.435 3.303H6.384v8.471H2.97v-8.47H.123V6.82H2.97V4.387c0-1.384.387-2.457 1.161-3.22C4.904.404 5.934.023 7.222.023c1.093 0 1.941.045 2.544.134z" fill-rule="evenodd"/>
</symbol><symbol id="icon-phone" viewBox="0 0 390 392">
    
    <clipPath id="b">
        <use xlink:href="#a" overflow="visible"/>
    </clipPath>
    <path clip-path="url(#b)" d="M304.3 239.7c-7.8-8.1-17.1-12.4-27-12.4-9.8 0-19.3 4.2-27.4 12.3l-25.3 25.2c-2.1-1.1-4.2-2.2-6.2-3.2-2.9-1.4-5.6-2.8-7.9-4.2-23.7-15-45.2-34.6-65.8-60-10-12.6-16.7-23.3-21.6-34.1 6.6-6 12.6-12.2 18.6-18.2 2.2-2.2 4.5-4.6 6.7-6.8 16.8-16.8 16.8-38.6 0-55.4L126.5 61c-2.5-2.5-5-5-7.4-7.6-4.8-5-9.8-10.1-15-14.9-7.8-7.7-17-11.8-26.8-11.8s-19.2 4.1-27.2 11.8l-.2.2-27.2 27.5C12.4 76.4 6.6 88.9 5.3 103.4c-1.9 23.4 5 45.1 10.2 59.4 13 35 32.3 67.4 61.2 102.1 35 41.8 77.2 74.9 125.4 98.2 18.4 8.7 43 19 70.4 20.8 1.7.1 3.4.2 5 .2 18.5 0 34-6.6 46.2-19.8.1-.2.2-.2.3-.4 4.2-5 9-9.6 14-14.5 3.4-3.3 7-6.7 10.4-10.3 7.9-8.2 12.1-17.8 12.1-27.7 0-9.9-4.2-19.4-12.3-27.4l-43.9-44.3zm28.6 84.2c-.1 0-.1.1 0 0-3.1 3.4-6.3 6.4-9.8 9.8-5.2 5-10.5 10.2-15.4 16-8.1 8.6-17.6 12.7-30.1 12.7-1.2 0-2.5 0-3.7-.1-23.8-1.5-45.8-10.8-62.4-18.7-45.3-21.9-85-53-118.1-92.5-27.3-32.9-45.5-63.3-57.6-95.9-7.4-19.9-10.2-35.4-9-50.1.8-9.4 4.4-17.1 11-23.8L65.1 54c3.9-3.7 8.1-5.7 12.2-5.7 5 0 9.1 3 11.7 5.6l.2.2c4.9 4.6 9.5 9.3 14.4 14.3 2.5 2.6 5 5.1 7.6 7.8L133 98c8.5 8.5 8.5 16.3 0 24.8l-6.9 6.9c-6.7 6.9-13.1 13.3-20.1 19.5-.2.2-.3.2-.4.4-6.9 6.9-5.6 13.6-4.2 18.2l.2.7c5.7 13.8 13.7 26.7 25.8 42.2l.1.1c22.1 27.2 45.4 48.4 71 64.6 3.3 2.1 6.6 3.8 9.8 5.4 2.9 1.4 5.6 2.8 7.9 4.2.3.2.6.4 1 .6 2.7 1.4 5.3 2 7.9 2 6.6 0 10.8-4.2 12.2-5.5l27.4-27.4c2.7-2.7 7-6 12.1-6 5 0 9 3.1 11.5 5.8l44.2 44.2c8.6 8.3 8.6 16.7.4 25.2zm0 0"/>
    <path clip-path="url(#b)" d="M209.6 95c21 3.5 40 13.4 55.2 28.6 15.2 15.2 25 34.2 28.6 55.2.9 5.3 5.4 9 10.6 9 .6 0 1.2-.1 1.8-.2 5.9-1 9.8-6.6 8.9-12.5-4.3-25.4-16.3-48.5-34.6-66.8C261.8 90 238.7 78 213.3 73.7c-5.9-1-11.4 3-12.5 8.8-1 5.9 2.8 11.6 8.8 12.5zm0 0"/>
    <path clip-path="url(#b)" d="M383.3 172.1c-7.1-41.8-26.8-79.8-57-110-30.2-30.2-68.2-49.9-110-57-5.8-1-11.4 3-12.4 8.8-1 5.9 3 11.4 8.9 12.5 37.3 6.3 71.3 24 98.3 51s44.6 61 51 98.3c.9 5.3 5.4 9 10.6 9 .6 0 1.2-.1 1.8-.2 5.9-1 9.9-6.6 8.8-12.4zm0 0"/>
</symbol></svg>