<?xml version="1.0" encoding="iso-8859-1"?>
<!-- Generator: Adobe Illustrator 21.0.2, SVG Export Plug-In . SVG Version: 6.00 Build 0)  -->
<svg version="1.1" id="Capa_1" xmlns="http://www.w3.org/2000/svg" xmlns:xlink="http://www.w3.org/1999/xlink" x="0px" y="0px"
	 viewBox="-49 137 512 519" enable-background="new -49 137 512 519" xml:space="preserve">
<g>
	<rect x="-26.931" y="326.379" fill="#7FACFA" width="123.586" height="317.793"/>
	<rect x="-0.448" y="326.379" fill="#A4C2F7" width="70.621" height="317.793"/>
	<rect x="-26.931" y="326.379" fill="#FFFFFF" width="26.483" height="317.793"/>
	<circle fill="#A4C2F7" cx="34.862" cy="564.724" r="35.31"/>
	<path fill="#E3E7F2" d="M17.158,530.647c-0.877,4.11-4.579,6.996-8.779,6.844v51.67c2.423,0.142,4.686,1.258,6.274,3.094
		s2.366,4.236,2.158,6.654c15.707-3.809,26.796-17.834,26.878-33.996C43.771,548.751,32.826,534.614,17.158,530.647L17.158,530.647z
		"/>
	<path fill="#A4C2F7" d="M432.103,379.345c0-9.365-3.72-18.346-10.342-24.968c-6.622-6.622-15.604-10.342-24.969-10.342H259.063
		l8.719-40.772c5.592-31.616,5.903-63.94,0.921-95.657c-3.954-26.636-27.806-57.778-52.761-57.778h-2.111
		c-21.275,0-28.9,23.471-28.9,52.966c0,143.448-70.621,141.241-70.621,141.241H96.655v282.483h256
		c19.501,0,35.31-15.809,35.31-35.31c0-19.501-15.809-35.31-35.31-35.31h26.483c19.501,0,35.31-15.809,35.31-35.31
		c0-19.501-15.809-35.31-35.31-35.31h26.483c19.501,0,35.31-15.809,35.31-35.31c0-22.01-14.24-30.386-35.31-33.511
		c-11.727-1.265-23.516-1.866-35.31-1.799h26.483C416.294,414.655,432.103,398.846,432.103,379.345z"/>
	<path fill="#E3E7F2" d="M405.621,379.345c0-9.365-3.72-18.346-10.342-24.968c-6.622-6.622-15.604-10.342-24.968-10.342H232.58
		l8.719-40.772c5.592-31.616,5.903-63.94,0.921-95.657c-3.954-26.636-14.679-48.95-39.634-48.95h-2.111
		c-21.275,0-6.717,14.643-6.717,44.138c0,143.448-79.448,141.241-79.448,141.241H96.655v282.483h229.517
		c19.501,0,35.31-15.809,35.31-35.31c0-19.501-15.809-35.31-35.31-35.31h26.483c19.501,0,35.31-15.809,35.31-35.31
		c0-19.501-15.809-35.31-35.31-35.31h26.483c19.501,0,35.31-15.809,35.31-35.31c0-22.01-14.24-30.386-35.31-33.511
		c-11.727-1.265-23.516-1.866-35.31-1.799h26.483C389.812,414.655,405.621,398.846,405.621,379.345z"/>
	<g>
		<path fill="#428DFF" d="M96.655,653H-26.931c-2.341,0.001-4.587-0.929-6.243-2.585c-1.656-1.656-2.585-3.901-2.585-6.243V326.379
			c-0.001-2.341,0.929-4.587,2.585-6.243c1.656-1.656,3.901-2.585,6.243-2.585H96.655c2.341-0.001,4.587,0.929,6.243,2.585
			s2.585,3.901,2.585,6.243v317.793c0.001,2.341-0.929,4.587-2.585,6.243C101.242,652.071,98.997,653.001,96.655,653z
			 M-18.103,635.345H87.828V335.207H-18.103V635.345z"/>
		<path fill="#428DFF" d="M34.862,608.862c-24.377,0-44.138-19.761-44.138-44.138s19.761-44.138,44.138-44.138
			S79,540.347,79,564.724C78.971,589.089,59.227,608.833,34.862,608.862L34.862,608.862z M34.862,538.241
			c-14.626,0-26.483,11.857-26.483,26.483c0,14.626,11.857,26.483,26.483,26.483s26.483-11.857,26.483-26.483
			C61.329,550.105,49.481,538.257,34.862,538.241L34.862,538.241z"/>
		<path fill="#428DFF" d="M379.138,423.483h-70.621c-4.875,0-8.828-3.952-8.828-8.828s3.952-8.828,8.828-8.828h70.621
			c4.875,0,8.828,3.952,8.828,8.828S384.013,423.483,379.138,423.483z"/>
		<path fill="#428DFF" d="M379.138,494.103h-70.621c-4.875,0-8.828-3.952-8.828-8.828s3.952-8.828,8.828-8.828h70.621
			c4.875,0,8.828,3.952,8.828,8.828S384.013,494.103,379.138,494.103z"/>
		<path fill="#428DFF" d="M361.483,564.724h-70.621c-4.875,0-8.828-3.952-8.828-8.828c0-4.875,3.952-8.828,8.828-8.828h70.621
			c4.875,0,8.828,3.952,8.828,8.828C370.31,560.772,366.358,564.724,361.483,564.724z"/>
		<path fill="#428DFF" d="M352.655,635.345h-256c-2.341,0.001-4.587-0.929-6.243-2.585s-2.585-3.901-2.585-6.243V344.034
			c-0.001-2.341,0.929-4.587,2.585-6.243c1.656-1.656,3.901-2.585,6.243-2.585h17.655c11.22-1.033,21.659-6.19,29.297-14.474
			c14.823-14.707,32.496-47.112,32.496-117.94c0-53.767,23.638-61.793,37.728-61.793h2.112c29.647,0,56.918,34.483,61.491,65.31
			c5.009,32.769,4.664,66.134-1.022,98.793l-6.435,30.103h126.815c18.402-0.007,34.875,11.408,41.332,28.639
			c6.457,17.231,1.542,36.661-12.332,48.749c15.308,5.867,25.02,21.011,23.965,37.371c-0.026,21.2-15.098,39.397-35.922,43.371
			c9.53,12.117,12.043,28.329,6.631,42.762c-5.413,14.434-17.967,24.995-33.113,27.858c10.445,13.281,12.387,31.361,5.001,46.557
			C384.968,625.711,369.551,635.353,352.655,635.345L352.655,635.345z M105.483,617.69h247.172
			c14.626,0,26.483-11.857,26.483-26.483c0-14.626-11.857-26.483-26.483-26.483c-4.875,0-8.828-3.952-8.828-8.828
			c0-4.875,3.952-8.828,8.828-8.828h26.483c14.626,0,26.483-11.857,26.483-26.483c0-14.626-11.857-26.483-26.483-26.483
			c-4.875,0-8.828-3.952-8.828-8.828s3.952-8.828,8.828-8.828h26.483c14.619-0.016,26.467-11.863,26.483-26.483
			c0-12.405-4.724-21.362-27.776-24.776c-11.298-1.212-22.655-1.782-34.017-1.707c-4.875,0-8.828-3.952-8.828-8.828
			s3.952-8.828,8.828-8.828h26.483c14.626,0,26.483-11.857,26.483-26.483c0-14.626-11.857-26.483-26.483-26.483H259.065
			c-2.665-0.001-5.187-1.205-6.863-3.277c-1.676-2.072-2.327-4.79-1.771-7.396l8.716-40.776c5.265-30.593,5.543-61.836,0.823-92.517
			c-3.354-22.612-24.333-50.241-44.027-50.241h-2.112c-17.466,0-20.073,27.655-20.073,44.138
			c0,62.328-12.918,106.448-38.392,131.138c-10.791,11.445-25.617,18.233-41.332,18.922l-8.552,0.009V617.69z"/>
	</g>
</g>
</svg>
