<?xml version="1.0" encoding="utf-8"?>
<!-- Generator: Adobe Illustrator 21.0.2, SVG Export Plug-In . SVG Version: 6.00 Build 0)  -->
<svg version="1.1" id="Слой_1" xmlns="http://www.w3.org/2000/svg" xmlns:xlink="http://www.w3.org/1999/xlink" x="0px" y="0px"
	 viewBox="0 0 402 527" enable-background="new 0 0 402 527" xml:space="preserve">
<polygon fill="#8BA9DA" points="19.1,237.8 383,237.8 383,306.9 19.1,306.9 19.1,237.8 "/>
<path fill="#BFCEE8" d="M344.3,306.9H57.8l24.6,169c2.8,18.9,20.6,33,41.7,33h153.8c21.1,0,39-14.1,41.7-33L344.3,306.9L344.3,306.9
	z"/>
<path fill="#F7E5E5" d="M312,351.8c-5.5,2.6-11.1,5.2-16.7,7.6c-1.5,0.7-3.1,1.3-4.6,2c-0.3,0.1-0.6,0.3-1.1,0.5
	c-2.7,1.1-5.5,2.3-8.2,3.4c-24,9.8-48.5,18.4-72.9,27.2c-42.4,15.3-85.3,31-124.9,52.8c3.6,8.4,6.3,17.1,8.8,25.9
	c1.1,3.8,2.4,7.6,3.5,11.4c2,4.2,3.7,8.4,4.9,12.8c1.5-0.9,3-1.8,4.6-2.6c41.9-12.4,82.5-28.6,123.2-44.4
	c30.9-12,62.6-21.9,93.5-33.7c-0.1-0.6,0-1.2,0.1-2c1.5-6.2,2.8-12.4,3.9-18.6c-0.1-0.6-0.1-1.3,0.1-2.1c0.7-3.2,1.4-6.4,2-9.6
	c1.2-6.8,2.2-13.6,3.3-20.4c0.2-1.1,0.6-1.9,1.3-2.5c1-6.5,1.6-13.1,2.3-19.6C327.6,344.1,319.8,348,312,351.8z"/>
<path fill="#F7E5E5" d="M316.2,462.4c1-7.2,1.4-14.4,2-21.7c-34.1,15.9-68.5,31.3-102.5,47.5c-9.1,4.3-18,8.8-27.2,12.9
	c-1.3,0.6-2.7,1.2-4,1.8c8.2,0,16.5,0,24.7,0.1c10.4,0.1,20.7,0.4,31.1,0.9c6.8,0.3,13.7,1.2,20.5,1c10.2-0.2,20.3-0.6,30.5-0.5
	c3.1,0,7.7-0.3,12,0.2C307.1,490.4,311.7,476.4,316.2,462.4z"/>
<path fill="#5B7EBD" d="M29.2,296.7V248h343.6v48.7H29.2L29.2,296.7z M309.6,474.4c-2,13.9-15.6,24.3-31.6,24.3H124.1
	c-16,0-29.6-10.5-31.6-24.3L69.6,317.1h262.9L309.6,474.4L309.6,474.4z M65.1,56.7V27.5h29.2c53.2,0,96.5,43.3,96.5,96.5v14.8
	l-82.6-82.6c-4-4-10.4-4-14.4,0c-4,4-4,10.4,0,14.4l82.6,82.6h-14.8C108.4,153.2,65.1,109.9,65.1,56.7L65.1,56.7z M307.7,27.5h29.2
	v29.2c0,53.2-43.3,96.5-96.5,96.5h-14.8l54.8-54.8c4-4,4-10.4,0-14.4c-4-4-10.4-4-14.4,0l-54.8,54.8V124
	C211.2,70.8,254.5,27.5,307.7,27.5L307.7,27.5z M383,227.6H211.2v-54h29.2c64.4,0,116.9-52.4,116.9-116.9V17.3
	c0-5.6-4.6-10.2-10.2-10.2h-39.4c-47.5,0-88.4,28.4-106.7,69.1C182.7,35.5,141.8,7.1,94.3,7.1H54.9c-5.6,0-10.2,4.6-10.2,10.2v39.4
	c0,64.4,52.4,116.9,116.9,116.9h29.2v54H19c-5.6,0-10.2,4.6-10.2,10.2v69.1c0,5.6,4.6,10.2,10.2,10.2H49l23.3,160.2
	c3.5,23.8,25.7,41.8,51.8,41.8h153.8c26.1,0,48.3-18,51.8-41.8l23.4-160.2H383c5.6,0,10.2-4.6,10.2-10.2v-69.1
	C393.2,232.2,388.6,227.6,383,227.6L383,227.6z"/>
<path fill="#5B7EBD" d="M297.1,77.6c2.6,0,5.2-1,7.2-3l4-4c4-4,4-10.4,0-14.4c-4-4-10.4-4-14.4,0l-4,4c-4,4-4,10.4,0,14.4
	C291.9,76.6,294.5,77.6,297.1,77.6L297.1,77.6z"/>
</svg>
