<?xml version="1.0" encoding="utf-8"?>
<!-- Generator: Adobe Illustrator 21.0.2, SVG Export Plug-In . SVG Version: 6.00 Build 0)  -->
<svg version="1.1" id="Слой_1" xmlns="http://www.w3.org/2000/svg" xmlns:xlink="http://www.w3.org/1999/xlink" x="0px" y="0px"
	 viewBox="0 0 760.6 469.4" enable-background="new 0 0 760.6 469.4" xml:space="preserve">
<g>
	<path fill="#BFCEE8" d="M283,34.2h38.1c10.1,0,19.7,4.5,26.2,12.3l63.2,75.9c7.7,9.2,11.9,20.8,11.9,32.8v31.1L283,34.2L283,34.2z"
		/>
	<g>
		<defs>
			<rect id="SVGID_1_" y="0" width="512" height="469.4"/>
		</defs>
		<clipPath id="SVGID_2_">
			<use xlink:href="#SVGID_1_"  overflow="visible"/>
		</clipPath>
		<path clip-path="url(#SVGID_2_)" fill="#8BA9DA" d="M452.3,432.2v20.1c0,4.7-3.7,8.5-8.4,8.5H109.1c-37.3-0.5-67.2-31-67-68.3
			v-68.3l0.6,0.1C25.8,292.9,17,257.7,17.1,222c-1-111.9,85.4-205.2,197-213c8.7-0.5,17.4-0.5,26,0.1c10.8,0.7,21.5,2.3,32,4.8
			l161.6,179.7c0.3,2.7,0.7,5.5,0.9,8.4c5,52.5-9.5,105.1-40.7,147.6c-8,11.1-6,26.4,4.5,35.1l48.9,39.9
			C450.3,425.9,452.3,428.9,452.3,432.2L452.3,432.2z"/>
		<path clip-path="url(#SVGID_2_)" fill="#FFFFFF" d="M128,460.9h-25.6c-37.7-0.1-68.2-30.6-68.3-68.3v-68.3l0.6,0.1
			c-35.1-64.2-34.9-141.8,0.5-205.8C70.7,54.6,136.4,13.3,209.4,9c0.3,0,0.6,0.1,0.9,0.1c3.9,0.3,7.8,0.6,11.7,1.1
			C151.7,18.6,90.2,61.4,57.8,124.4c-32.4,63-31.4,137.9,2.6,200.1l-0.6-0.1v68.3C59.8,430.3,90.3,460.8,128,460.9L128,460.9z"/>
	</g>
	<path fill="#BFCEE8" d="M426.7,432.2v20.1c0,4.7-3.8,8.5-8.5,8.5H128c-37.7-0.1-68.2-30.6-68.3-68.3v-68.3l0.6,0.1
		c-34-62.1-35-137.1-2.6-200.1C90.2,61.4,151.7,18.6,222,10.2c7,0.8,14,2.1,20.9,3.7l164.8,179.7c0.3,2.7,0.7,5.5,0.9,8.4
		c5,52.7-9.8,105.3-41.5,147.6c-8.1,11-6.1,26.5,4.6,35.1l49.8,39.9C424.7,425.8,426.6,428.9,426.7,432.2L426.7,432.2z"/>
	<path fill="#8BA9DA" d="M358.4,222H85.3c0-75.4,61.1-136.5,136.5-136.5C297.3,85.4,358.4,146.6,358.4,222L358.4,222L358.4,222z"/>
	<g>
		<defs>
			<path id="SVGID_3_" d="M332.8,222H85.3c0-75.4,55.4-136.5,123.7-136.5C277.4,85.4,332.8,146.5,332.8,222L332.8,222z"/>
		</defs>
		<clipPath id="SVGID_4_">
			<use xlink:href="#SVGID_3_"  overflow="visible"/>
		</clipPath>
		<g clip-path="url(#SVGID_4_)">
			<defs>
				<rect id="SVGID_5_" x="85.3" y="85.4" width="247.5" height="136.5"/>
			</defs>
			<clipPath id="SVGID_6_">
				<use xlink:href="#SVGID_5_"  overflow="visible"/>
			</clipPath>
			<g clip-path="url(#SVGID_6_)">
				
					<image overflow="visible" width="520" height="288" xlink:href="C62E5669.jpg"  transform="matrix(0.48 0 0 -0.48 84.7148 223.1636)">
				</image>
			</g>
		</g>
	</g>
	<path fill="#8BA9DA" d="M358.4,222c0,75.4-61.1,136.5-136.5,136.5c-75.4,0-136.5-61.1-136.5-136.5H358.4L358.4,222z"/>
	<g>
		<defs>
			<path id="SVGID_7_" d="M332.8,222c0,75.4-55.4,136.5-123.7,136.5c-68.4,0-123.7-61.1-123.7-136.5H332.8L332.8,222z"/>
		</defs>
		<clipPath id="SVGID_8_">
			<use xlink:href="#SVGID_7_"  overflow="visible"/>
		</clipPath>
		<g clip-path="url(#SVGID_8_)">
			<defs>
				<rect id="SVGID_9_" x="85.3" y="222" width="247.5" height="136.5"/>
			</defs>
			<clipPath id="SVGID_10_">
				<use xlink:href="#SVGID_9_"  overflow="visible"/>
			</clipPath>
			<g clip-path="url(#SVGID_10_)">
				
					<image overflow="visible" width="520" height="289" xlink:href="C62E566B.jpg"  transform="matrix(0.48 0 0 -0.48 84.7148 359.9204)">
				</image>
			</g>
		</g>
	</g>
	<polygon fill="#7395CE" points="298.7,153.7 298.7,187.8 145.1,187.8 145.1,153.7 162.1,153.7 162.1,136.6 281.6,136.6 
		281.6,153.7 298.7,153.7 	"/>
	<g>
		<defs>
			<rect id="SVGID_11_" y="0" width="754.6" height="469.4"/>
		</defs>
		<clipPath id="SVGID_12_">
			<use xlink:href="#SVGID_11_"  overflow="visible"/>
		</clipPath>
		<path clip-path="url(#SVGID_12_)" fill="#5B7EBD" d="M8.5,213.4c4.7,0,8.5,3.8,8.5,8.5c0,4.7-3.8,8.5-8.5,8.5
			c-4.7,0-8.5-3.8-8.5-8.5C0,217.2,3.8,213.4,8.5,213.4L8.5,213.4z"/>
		<path clip-path="url(#SVGID_12_)" fill="#5B7EBD" d="M325.4,42.8c7.6,0,14.8,3.4,19.7,9.2l63.3,75.9c6.4,7.7,9.9,17.3,9.9,27.3
			v9.2L306.7,42.8H325.4L325.4,42.8z M746.3,469.4c2.3,0,4.4-0.9,6-2.5c1.6-1.6,2.5-3.8,2.5-6v-34.1c0-2.3-0.9-4.4-2.5-6
			c-1.6-1.6-3.8-2.5-6-2.5h-293c-0.4-0.3-0.8-0.7-1.3-1L402.9,378c-7.2-5.6-8.6-16-3.1-23.3c32.9-44.1,48.3-98.8,43.1-153.5
			c-0.3-2.9-0.6-5.8-1-8.7c-0.1-0.3-0.2-0.6-0.3-0.8c-0.2-1.1-0.7-2.2-1.5-3.1c-0.1-0.3-0.3-0.5-0.4-0.7l-4.4-4.8v-27.8
			c0-14-4.9-27.5-13.8-38.2L358.2,41c-8.1-9.7-20.1-15.4-32.8-15.4h-34.4L274.9,8.1c-0.2-0.2-0.4-0.3-0.7-0.5
			c-0.9-0.8-1.9-1.4-3-1.7c-0.3-0.1-0.5-0.3-0.7-0.3c-11.2-2.6-22.5-4.3-34-5C122.2-7.4,20.8,73.3,2.8,186.5c-0.5,3,0.6,6.1,3,8
			c2.4,1.9,5.6,2.5,8.5,1.4c2.9-1.1,4.9-3.6,5.4-6.7C36.3,84.7,130,10.3,235.5,17.6c9.7,0.6,19.3,2,28.7,4.1l161,175.6
			c0.2,1.8,0.4,3.6,0.6,5.4c4.8,50.5-9.4,101-39.8,141.7c-11,14.7-8.3,35.5,6.1,46.9l49.8,39.8c0.6,0.4,1.2,0.8,1.8,1.1v20.1H102.4
			c-33,0-59.7-26.8-59.8-59.7v-65c0.9-2.4,0.8-5-0.5-7.3c-11.2-20.4-18.9-42.6-22.5-65.6c-0.5-3-2.5-5.6-5.4-6.7
			c-2.9-1.1-6.1-0.6-8.5,1.4c-2.4,1.9-3.5,5-3,8c3.8,23.8,11.5,46.8,22.8,68v67.1c0,42.4,34.4,76.8,76.8,76.8h341.4
			c9.4,0,17.1-7.6,17.1-17.1v-17.1h276.8v25.6c0,2.3,0.9,4.4,2.5,6C741.9,468.5,744,469.4,746.3,469.4L746.3,469.4z"/>
	</g>
	<path fill="#5B7EBD" d="M221.9,350c-67.3-0.1-123.1-52.3-127.6-119.5h255.1C344.9,297.7,289.2,349.9,221.9,350L221.9,350L221.9,350
		z M221.9,94c67.3,0.1,123,52.3,127.6,119.5H94.3C98.8,146.3,154.6,94.1,221.9,94L221.9,94L221.9,94z M221.9,76.9
		c-80.1,0-145.1,64.9-145.1,145.1c0,80.1,64.9,145.1,145.1,145.1c80.1,0,145.1-64.9,145.1-145.1C366.8,141.9,301.9,77,221.9,76.9
		L221.9,76.9z"/>
	<path fill="#5B7EBD" d="M162.1,162.2c2.3,0,4.4-0.9,6-2.5c1.6-1.6,2.5-3.8,2.5-6v-8.5h102.4v8.5c0,2.3,0.9,4.4,2.5,6
		c1.6,1.6,3.8,2.5,6,2.5h8.5v17.1H153.6v-17.1H162.1L162.1,162.2z M145.1,196.4h153.6c2.3,0,4.4-0.9,6-2.5c1.6-1.6,2.5-3.8,2.5-6
		v-34.1c0-2.3-0.9-4.4-2.5-6c-1.6-1.6-3.8-2.5-6-2.5h-8.5v-8.5c0-2.3-0.9-4.4-2.5-6c-1.6-1.6-3.8-2.5-6-2.5H162.1
		c-2.3,0-4.4,0.9-6,2.5c-1.6,1.6-2.5,3.8-2.5,6v8.5h-8.5c-2.3,0-4.4,0.9-6,2.5c-1.6,1.6-2.5,3.8-2.5,6v34.1c0,2.3,0.9,4.4,2.5,6
		C140.6,195.5,142.8,196.4,145.1,196.4L145.1,196.4L145.1,196.4z"/>
	<path fill="#5B7EBD" d="M343.8,403.7c-1.6,1.6-2.5,3.8-2.5,6c0,2.3,0.9,4.4,2.5,6l21.3,21.3c3.3,3.3,8.7,3.3,12,0
		c3.3-3.3,3.3-8.7,0-12l-21.3-21.3c-1.6-1.6-3.8-2.5-6-2.5C347.6,401.2,345.4,402.1,343.8,403.7L343.8,403.7z"/>
	<path fill="#5B7EBD" d="M301.2,403.7c-1.6,1.6-2.5,3.8-2.5,6c0,2.3,0.9,4.4,2.5,6l21.3,21.3c3.3,3.3,8.7,3.3,12,0
		c3.3-3.3,3.3-8.7,0-12l-21.3-21.3c-1.6-1.6-3.8-2.5-6-2.5S302.8,402.1,301.2,403.7L301.2,403.7z"/>
	<path fill="#5B7EBD" d="M258.5,403.7c-1.6,1.6-2.5,3.8-2.5,6c0,2.3,0.9,4.4,2.5,6l21.3,21.3c3.3,3.3,8.7,3.3,12,0
		c3.3-3.3,3.3-8.7,0-12l-21.3-21.3c-1.6-1.6-3.8-2.5-6-2.5S260.1,402.1,258.5,403.7L258.5,403.7L258.5,403.7z"/>
	<path fill="#5B7EBD" d="M215.8,403.7c-1.6,1.6-2.5,3.8-2.5,6c0,2.3,0.9,4.4,2.5,6l21.3,21.3c2.2,2.2,5.3,3,8.3,2.3
		c3-0.8,5.3-3.1,6.1-6.1c0.8-3-0.1-6.1-2.3-8.3l-21.3-21.3c-1.6-1.6-3.8-2.5-6-2.5C219.6,401.2,217.4,402.1,215.8,403.7L215.8,403.7
		z"/>
	<path fill="#5B7EBD" d="M173.2,403.7c-1.6,1.6-2.5,3.8-2.5,6c0,2.3,0.9,4.4,2.5,6l21.3,21.3c2.2,2.2,5.3,3,8.3,2.3
		c3-0.8,5.3-3.1,6.1-6.1c0.8-3-0.1-6.1-2.3-8.3l-21.3-21.3c-1.6-1.6-3.8-2.5-6-2.5C176.9,401.2,174.8,402.1,173.2,403.7L173.2,403.7
		z"/>
	<path fill="#5B7EBD" d="M130.5,403.7c-1.6,1.6-2.5,3.8-2.5,6c0,2.3,0.9,4.4,2.5,6l21.3,21.3c2.2,2.2,5.3,3,8.3,2.3
		c3-0.8,5.3-3.1,6.1-6.1c0.8-3-0.1-6.1-2.3-8.3l-21.3-21.3c-1.6-1.6-3.8-2.5-6-2.5C134.3,401.2,132.1,402.1,130.5,403.7L130.5,403.7
		L130.5,403.7z"/>
	<path fill="#5B7EBD" d="M87.8,403.7c-1.6,1.6-2.5,3.8-2.5,6c0,2.3,0.9,4.4,2.5,6l21.3,21.3c2.2,2.2,5.3,3,8.3,2.3
		c3-0.8,5.3-3.1,6.1-6.1c0.8-3-0.1-6.1-2.3-8.3l-21.3-21.3c-1.6-1.6-3.8-2.5-6-2.5C91.6,401.2,89.4,402.1,87.8,403.7L87.8,403.7
		L87.8,403.7z"/>
</g>
</svg>
